<svg width="60" height="1024" viewBox="0 0 60 1024" fill="none" xmlns="http://www.w3.org/2000/svg">
<path d="M30 638.875V622M50.625 598.875H9.375C8.71196 598.875 8.07607 599.138 7.60723 599.607C7.13839 600.076 6.875 600.712 6.875 601.375V642.625C6.875 643.288 7.13839 643.924 7.60723 644.393C8.07607 644.862 8.71196 645.125 9.375 645.125H50.625C51.288 645.125 51.9239 644.862 52.3928 644.393C52.8616 643.924 53.125 643.288 53.125 642.625V601.375C53.125 600.712 52.8616 600.076 52.3928 599.607C51.9239 599.138 51.288 598.875 50.625 598.875V598.875ZM18.725 605.125L30 622L18.725 605.125ZM41.275 605.125L30 622L41.275 605.125Z" stroke="white" stroke-linecap="round" stroke-linejoin="round"/>
<path d="M21.5625 385.125V418.875M50.625 378.875H9.375C8.71196 378.875 8.07607 379.138 7.60723 379.607C7.13839 380.076 6.875 380.712 6.875 381.375V422.625C6.875 423.288 7.13839 423.924 7.60723 424.393C8.07607 424.862 8.71196 425.125 9.375 425.125H50.625C51.288 425.125 51.9239 424.862 52.3928 424.393C52.8616 423.924 53.125 423.288 53.125 422.625V381.375C53.125 380.712 52.8616 380.076 52.3928 379.607C51.9239 379.138 51.288 378.875 50.625 378.875V378.875ZM21.5625 418.875H38.4375H21.5625ZM21.5625 385.125H38.4375H21.5625ZM21.5625 402H32.5625H21.5625Z" stroke="white" stroke-linecap="round" stroke-linejoin="round"/>
<path d="M29.3875 495.125C23.275 495.45 18.675 500.937 18.675 507.062V517.563C18.6783 520.564 19.8729 523.441 21.9964 525.562C24.1199 527.684 26.9986 528.875 30 528.875V528.875C31.4872 528.875 32.9599 528.582 34.3339 528.013C35.7079 527.444 36.9564 526.61 38.008 525.558C39.0596 524.506 39.8938 523.258 40.4629 521.884C41.0321 520.51 41.325 519.037 41.325 517.55" stroke="white" stroke-linecap="round" stroke-linejoin="round"/>
<path d="M39.325 498.825C37.2625 496.125 34.6625 495.075 31.05 495.075H29.3875M41.325 517.55C41.3052 514.559 40.1033 511.698 37.9816 509.59C35.8599 507.483 32.9906 506.3 30 506.3C26.9964 506.3 24.1159 507.493 21.992 509.617C19.8682 511.741 18.675 514.621 18.675 517.625L41.325 517.55Z" stroke="white" stroke-linecap="round" stroke-linejoin="round"/>
<path d="M50.625 488.875H9.375C8.71196 488.875 8.07607 489.138 7.60723 489.607C7.13839 490.076 6.875 490.712 6.875 491.375V532.625C6.875 533.288 7.13839 533.924 7.60723 534.393C8.07607 534.862 8.71196 535.125 9.375 535.125H50.625C51.288 535.125 51.9239 534.862 52.3928 534.393C52.8616 533.924 53.125 533.288 53.125 532.625V491.375C53.125 490.712 52.8616 490.076 52.3928 489.607C51.9239 489.138 51.288 488.875 50.625 488.875V488.875Z" stroke="white" stroke-linecap="round" stroke-linejoin="round"/>
<path d="M30 0V379" stroke="white"/>
<path d="M30 425C30 425.4 30 467.833 30 489" stroke="white"/>
<path d="M30 535V599" stroke="white"/>
<path d="M30 645V1024" stroke="white"/>
</svg>
